<svg width="37" height="39" viewBox="0 0 37 39" fill="none" xmlns="http://www.w3.org/2000/svg">
<path d="M32.375 16.4167C32.375 27.2084 18.5 36.4584 18.5 36.4584C18.5 36.4584 4.625 27.2084 4.625 16.4167C4.625 12.7368 6.08683 9.20765 8.68889 6.60558C11.291 4.00351 14.8201 2.54169 18.5 2.54169C22.1799 2.54169 25.709 4.00351 28.3111 6.60558C30.9132 9.20765 32.375 12.7368 32.375 16.4167Z" stroke="white" stroke-width="4" stroke-linecap="round" stroke-linejoin="round"/>
<path d="M18.5 21.0416C21.0543 21.0416 23.125 18.9709 23.125 16.4166C23.125 13.8623 21.0543 11.7916 18.5 11.7916C15.9457 11.7916 13.875 13.8623 13.875 16.4166C13.875 18.9709 15.9457 21.0416 18.5 21.0416Z" stroke="white" stroke-width="4" stroke-linecap="round" stroke-linejoin="round"/>
</svg>
